AVIDMobile - http://www.avidmobile.com.ar (Mobile media)

* The video contains embedded subtitles in Spanish. You can find the same video without the subtitles. Visit http://blog.avidmobile.com.ar.

* El video contiene subtítulos incrustados en Español. Usted podrá encontrar el mismo video sin los subtítulos. Visite http://blog.avidmobile.com.ar

Video
ID : 1
Format : MPEG-4 Visual
Format profile : Simple@L1
Format settings, BVOP : No
Format settings, QPel : No
Format settings, GMC : No warppoints
Format settings, Matrix : Default (H.263)
Codec ID : 20
Duration : 42mn 17s
Bit rate mode : Variable
Bit rate : 502 Kbps
Maximum bit rate : 2 965 Kbps
Width : 320 pixels
Height : 240 pixels
Display aspect ratio : 4/3
Frame rate mode : Variable
Frame rate : 23.976 fps
Minimum frame rate : 23.974 fps
Maximum frame rate : 23.981 fps
Resolution : 24 bits
Colorimetry : 4:2:0
Scan type : Progressive
Bits/(Pixel*Frame) : 0.273
Stream size : 152 MiB (88%)

Audio
ID : 2
Format : AAC
Format/Info : Advanced Audio Codec
Format version : Version 4
Format profile : LC
Format settings, SBR : No
Codec ID : 40
Duration : 42mn 16s
Bit rate mode : Variable
Bit rate : 64.3 Kbps
Maximum bit rate : 105 Kbps
Channel(s) : 2 channels
Channel positions : L R
Sampling rate : 22.05 KHz
Resolution : 16 bits
Stream size : 19.5 MiB (11%)